<mxfile host="app.diagrams.net" modified="2023-12-29T22:22:10.337Z" agent="Mozilla/5.0 (Windows NT 10.0; Win64; x64) AppleWebKit/537.36 (KHTML, like Gecko) Chrome/120.0.0.0 Safari/537.36" version="22.1.15" etag="bgea3RbCW6H7eIlBIim2" type="github">
  <diagram name="Page-1" id="ZUHi_cFpA8YCc4I6dhga">
    <mxGraphModel>
      <root>
        <mxCell id="0" />
        <mxCell id="1" parent="0" />
      </root>
    </mxGraphModel>
  </diagram>
</mxfile>
